nColumns=19
nRows=122
DataType=double
version=3
OpenSimVersion=4.1
endheader
time	ground_force_1_vx	ground_force_1_vy	ground_force_1_vz	ground_force_1_px	ground_force_1_py	ground_force_1_pz	ground_force_1_mx	ground_force_1_my	ground_force_1_mz	ground_force_2_vx	ground_force_2_vy	ground_force_2_vz	ground_force_2_px	ground_force_2_py	ground_force_2_pz	ground_force_2_mx	ground_force_2_my	ground_force_2_mz
1.48	0	0	0	-0.000226869	0	-0.00109423	0	0	0	-4.3341	20.102	3.55875	1.08238	0	-0.372536	-0	1.43791	-0
1.49	0	0	0	-0.000226869	0	-0.00109423	0	0	0	-11.872	86.303	10.1652	1.12675	0	-0.390521	0	-2.84132	0
1.5	0	0	0	-0.000226869	0	-0.00109423	0	0	0	-33.8224	291.868	27.1949	1.11936	0	-0.388021	0	-7.38707	0
1.51	0	0	0	-0.000226869	0	-0.00109423	0	0	0	-79.1218	684.902	54.326	1.11182	0	-0.379608	0	-10.6536	0
1.52	0	0	0	-0.000226869	0	-0.00109423	0	0	0	-139.898	1112.8	71.3159	1.10583	0	-0.370025	0	-11.3433	0
1.53	0	0	0	-0.000226869	0	-0.00109423	0	0	0	-193.945	1369.54	48.1545	1.09573	0	-0.365855	0	-9.23021	0
1.54	0	0	0	-0.000226869	0	-0.00109423	0	0	0	-227.245	1483.28	-8.21828	1.0756	0	-0.369635	0	-5.48752	0
1.55	0	0	0	-0.000226869	0	-0.00109423	0	0	0	-230.812	1595.87	-45.672	1.04628	0	-0.372976	0	-2.00787	0
1.56	0	0	0	-0.000226869	0	-0.00109423	0	0	0	-199.131	1753.7	-35.4155	1.01109	0	-0.370569	0	-0.106029	0
1.57	0	0	0	-0.000226869	0	-0.00109423	0	0	0	-132.413	1884.03	-8.56834	0.973773	0	-0.368602	-0	0.258977	-0
1.58	0	0	0	-0.000226869	0	-0.00109423	0	0	0	-59.6	1915.71	-2.79465	0.938431	0	-0.370234	-0	0.129491	-0
1.59	0	0	0	-0.000226869	0	-0.00109423	0	0	0	0.83066	1856.33	-16.6142	0.904989	0	-0.371459	-0	0.611509	-0
1.6	0	0	0	-0.000226869	0	-0.00109423	0	0	0	62.5888	1735.27	-32.7037	0.870624	0	-0.369298	-0	2.20774	-0
1.61	0	0	0	-0.000226869	0	-0.00109423	0	0	0	130.76	1551.21	-47.1629	0.833952	0	-0.365903	-0	4.67906	-0
1.62	0	0	0	-0.000226869	0	-0.00109423	0	0	0	196.483	1305.05	-61.4173	0.793314	0	-0.363796	-0	7.24649	-0
1.63	0	0	0	-0.000226869	0	-0.00109423	0	0	0	240.699	1028.77	-69.7913	0.748891	0	-0.363006	-0	8.96981	-0
1.64	0	0	0	-0.000226869	0	-0.00109423	0	0	0	241.747	760.704	-65.873	0.707445	0	-0.362295	-0	9.18696	-0
1.65	0	0	0	-0.000226869	0	-0.00109423	0	0	0	206.775	522.092	-52.1637	0.676564	0	-0.36117	-0	7.81748	-0
1.66	0	0	0	-0.000226869	0	-0.00109423	0	0	0	159.082	322.71	-36.6783	0.654595	0	-0.360529	-0	5.36001	-0
1.67	0	0	0	-0.000226869	0	-0.00109423	0	0	0	105.698	171.962	-24.0476	0.636047	0	-0.360334	-0	2.6168	-0
1.68	0	0	0	-0.000226869	0	-0.00109423	0	0	0	52.9615	76.0961	-14.3709	0.623035	0	-0.357091	-0	0.340872	-0
1.69	0	0	0	-0.000226869	0	-0.00109423	0	0	0	16.9578	28.2018	-7.1346	0.654541	0	-0.339956	0	-1.02256	0
1.7	0	0	0	-0.000226869	0	-0.00109423	0	0	0	2.30168	10.444	-2.51972	0.860981	0	-0.280939	0	-1.43834	0
1.71	0	0	0	-0.000226869	0	-0.00109423	0	0	0	0	0	0	-0.000226869	0	-0.00109423	0	0	0
1.72	0	0	0	-0.000226869	0	-0.00109423	0	0	0	0	0	0	-0.000226869	0	-0.00109423	0	0	0
1.73	0	0	0	-0.000226869	0	-0.00109423	0	0	0	0	0	0	-0.000226869	0	-0.00109423	0	0	0
1.74	0	0	0	-0.000226869	0	-0.00109423	0	0	0	0	0	0	-0.000226869	0	-0.00109423	0	0	0
1.75	0	0	0	-0.000226869	0	-0.00109423	0	0	0	0	0	0	-0.000226869	0	-0.00109423	0	0	0
1.76	0	0	0	-0.000226869	0	-0.00109423	0	0	0	0	0	0	-0.000226869	0	-0.00109423	0	0	0
1.77	0	0	0	-0.000226869	0	-0.00109423	0	0	0	0	0	0	-0.000226869	0	-0.00109423	0	0	0
1.78	-4.00581	14.4753	-7.93995	1.20848	0	-0.288495	0	-0.400177	0	0	0	0	-0.000226869	0	-0.00109423	0	0	0
1.79	-20.537	58.7654	-20.7817	1.19684	0	-0.327553	-0	3.48459	-0	0	0	0	-0.000226869	0	-0.00109423	0	0	0
1.8	-69.0845	204.956	-40.2572	1.18737	0	-0.336582	-0	8.41538	-0	0	0	0	-0.000226869	0	-0.00109423	0	0	0
1.81	-132.038	503.288	-58.1392	1.18038	0	-0.337916	-0	13.0496	-0	0	0	0	-0.000226869	0	-0.00109423	0	0	0
1.82	-133.738	867.097	-61.2179	1.15943	0	-0.339828	-0	15.9179	-0	0	0	0	-0.000226869	0	-0.00109423	0	0	0
1.83	-106.482	1178.84	-42.3262	1.12406	0	-0.344843	-0	16.0915	-0	0	0	0	-0.000226869	0	-0.00109423	0	0	0
1.84	-151.35	1411.99	-5.30078	1.09135	0	-0.351291	-0	13.6131	-0	0	0	0	-0.000226869	0	-0.00109423	0	0	0
1.85	-195.58	1590.28	36.5775	1.06116	0	-0.355972	-0	9.42959	-0	0	0	0	-0.000226869	0	-0.00109423	0	0	0
1.86	-170.319	1760.95	66.7021	1.02333	0	-0.358548	-0	4.87108	-0	0	0	0	-0.000226869	0	-0.00109423	0	0	0
1.87	-105.24	1901.93	80.2349	0.983188	0	-0.359793	-0	1.01367	-0	0	0	0	-0.000226869	0	-0.00109423	0	0	0
1.88	-42.0071	1957.01	85.2174	0.948639	0	-0.360772	0	-1.66493	0	0	0	0	-0.000226869	0	-0.00109423	0	0	0
1.89	16.3858	1928.84	89.357	0.916386	0	-0.362037	0	-3.19824	0	0	0	0	-0.000226869	0	-0.00109423	0	0	0
1.9	78.4305	1835.42	94.8862	0.882396	0	-0.36328	0	-3.81672	0	0	0	0	-0.000226869	0	-0.00109423	0	0	0
1.91	131.39	1676.24	98.9033	0.847316	0	-0.364507	0	-3.6929	0	0	0	0	-0.000226869	0	-0.00109423	0	0	0
1.92	177.675	1446.93	95.9737	0.808937	0	-0.366234	0	-2.89505	0	0	0	0	-0.000226869	0	-0.00109423	0	0	0
1.93	222.879	1157.46	84.0558	0.764141	0	-0.36863	0	-1.50512	0	0	0	0	-0.000226869	0	-0.00109423	0	0	0
1.94	242.696	851.513	66.5896	0.71929	0	-0.370431	-0	0.261417	-0	0	0	0	-0.000226869	0	-0.00109423	0	0	0
1.95	214.964	577.714	48.5362	0.686201	0	-0.370635	-0	2.05443	-0	0	0	0	-0.000226869	0	-0.00109423	0	0	0
1.96	162.409	361.282	32.5779	0.667199	0	-0.368643	-0	3.49544	-0	0	0	0	-0.000226869	0	-0.00109423	0	0	0
1.97	108.859	203.287	19.5661	0.649503	0	-0.364641	-0	4.30572	-0	0	0	0	-0.000226869	0	-0.00109423	0	0	0
1.98	60.2079	96.4331	10.1904	0.610451	0	-0.360918	-0	4.39177	-0	0	0	0	-0.000226869	0	-0.00109423	0	0	0
1.99	22.9668	36.1215	4.64795	0.586483	0	-0.353763	-0	3.86748	-0	0	0	0	-0.000226869	0	-0.00109423	0	0	0
2	5.09423	11.6212	2.1491	0.876922	0	-0.308336	-0	3.01314	-0	0	0	0	-0.000226869	0	-0.00109423	0	0	0
2.01	0	0	0	-0.000226869	0	-0.00109423	0	0	0	0	0	0	-0.000226869	0	-0.00109423	0	0	0
2.02	0	0	0	-0.000226869	0	-0.00109423	0	0	0	0	0	0	-0.000226869	0	-0.00109423	0	0	0
2.03	0	0	0	-0.000226869	0	-0.00109423	0	0	0	0	0	0	-0.000226869	0	-0.00109423	0	0	0
2.04	0	0	0	-0.000226869	0	-0.00109423	0	0	0	0	0	0	-0.000226869	0	-0.00109423	0	0	0
2.05	0	0	0	-0.000226869	0	-0.00109423	0	0	0	0	0	0	-0.000226869	0	-0.00109423	0	0	0
2.06	0	0	0	-0.000226869	0	-0.00109423	0	0	0	0	0	0	-0.000226869	0	-0.00109423	0	0	0
2.07	0	0	0	-0.000226869	0	-0.00109423	0	0	0	0	0	0	-0.000226869	0	-0.00109423	0	0	0
2.08	0	0	0	-0.000226869	0	-0.00109423	0	0	0	-6.5147	22.4336	0.507824	1.21715	0	-0.329349	0	-0.934885	0
2.09	0	0	0	-0.000226869	0	-0.00109423	0	0	0	-27.2697	86.9166	3.40706	1.20209	0	-0.359406	0	-4.78178	0
2.1	0	0	0	-0.000226869	0	-0.00109423	0	0	0	-67.5852	277.909	13.8927	1.21074	0	-0.362866	0	-9.20633	0
2.11	0	0	0	-0.000226869	0	-0.00109423	0	0	0	-111.321	638.7	33.6064	1.21059	0	-0.35664	0	-12.9621	0
2.12	0	0	0	-0.000226869	0	-0.00109423	0	0	0	-147.57	1022.77	48.5636	1.20195	0	-0.348241	0	-14.8082	0
2.13	0	0	0	-0.000226869	0	-0.00109423	0	0	0	-191.807	1230.24	33.7727	1.18639	0	-0.343911	0	-14.1923	0
2.14	0	0	0	-0.000226869	0	-0.00109423	0	0	0	-244.262	1309.2	-8.56718	1.16372	0	-0.347023	0	-11.6255	0
2.15	0	0	0	-0.000226869	0	-0.00109423	0	0	0	-275.611	1418.04	-37.5092	1.13545	0	-0.350152	0	-8.31045	0
2.16	0	0	0	-0.000226869	0	-0.00109423	0	0	0	-261.609	1598.7	-30.7896	1.10097	0	-0.346904	0	-5.26788	0
2.17	0	0	0	-0.000226869	0	-0.00109423	0	0	0	-199.61	1765.69	-17.3028	1.06331	0	-0.343902	0	-2.80441	0
2.18	0	0	0	-0.000226869	0	-0.00109423	0	0	0	-127.493	1839.92	-26.1457	1.02924	0	-0.34527	0	-0.733791	0
2.19	0	0	0	-0.000226869	0	-0.00109423	0	0	0	-69.438	1832.98	-46.4717	0.997849	0	-0.347332	-0	1.13468	-0
2.2	0	0	0	-0.000226869	0	-0.00109423	0	0	0	-14.5028	1790.67	-57.7697	0.964538	0	-0.346772	-0	2.82383	-0
2.21	0	0	0	-0.000226869	0	-0.00109423	0	0	0	40.5742	1714.42	-60.5262	0.931237	0	-0.345396	-0	4.29582	-0
2.22	0	0	0	-0.000226869	0	-0.00109423	0	0	0	83.9786	1587.05	-63.0928	0.901151	0	-0.344801	-0	5.52376	-0
2.23	0	0	0	-0.000226869	0	-0.00109423	0	0	0	118.094	1415.38	-65.6866	0.871607	0	-0.344014	-0	6.45943	-0
2.24	0	0	0	-0.000226869	0	-0.00109423	0	0	0	150.085	1211.72	-64.8624	0.838804	0	-0.342234	-0	7.01042	-0
2.25	0	0	0	-0.000226869	0	-0.00109423	0	0	0	172.398	974.842	-60.4016	0.80045	0	-0.340648	-0	7.07289	-0
2.26	0	0	0	-0.000226869	0	-0.00109423	0	0	0	180.714	719.749	-53.8131	0.753504	0	-0.340935	-0	6.58755	-0
2.27	0	0	0	-0.000226869	0	-0.00109423	0	0	0	168.347	489.014	-44.7732	0.705285	0	-0.342913	-0	5.59463	-0
2.28	0	0	0	-0.000226869	0	-0.00109423	0	0	0	135.281	308.976	-32.7307	0.672956	0	-0.344463	-0	4.27135	-0
2.29	0	0	0	-0.000226869	0	-0.00109423	0	0	0	92.5429	176.965	-20.1935	0.667789	0	-0.344449	-0	2.91189	-0
2.3	0	0	0	-0.000226869	0	-0.00109423	0	0	0	52.1831	85.7759	-10.4237	0.680327	0	-0.344934	-0	1.82463	-0
2.31	0	0	0	-0.000226869	0	-0.00109423	0	0	0	20.3924	32.6519	-4.17746	0.685516	0	-0.339517	-0	1.19476	-0
2.32	0	0	0	-0.000226869	0	-0.00109423	0	0	0	3.71675	10.5683	-0.717173	0.623095	0	-0.286953	-0	0.997132	-0
2.33	0	0	0	-0.000226869	0	-0.00109423	0	0	0	0	0	0	-0.000226869	0	-0.00109423	0	0	0
2.34	0	0	0	-0.000226869	0	-0.00109423	0	0	0	0	0	0	-0.000226869	0	-0.00109423	0	0	0
2.35	0	0	0	-0.000226869	0	-0.00109423	0	0	0	0	0	0	-0.000226869	0	-0.00109423	0	0	0
2.36	0	0	0	-0.000226869	0	-0.00109423	0	0	0	0	0	0	-0.000226869	0	-0.00109423	0	0	0
2.37	0	0	0	-0.000226869	0	-0.00109423	0	0	0	0	0	0	-0.000226869	0	-0.00109423	0	0	0
2.38	0	0	0	-0.000226869	0	-0.00109423	0	0	0	0	0	0	-0.000226869	0	-0.00109423	0	0	0
2.39	0	0	0	-0.000226869	0	-0.00109423	0	0	0	0	0	0	-0.000226869	0	-0.00109423	0	0	0
2.4	0	0	0	-0.000226869	0	-0.00109423	0	0	0	0	0	0	-0.000226869	0	-0.00109423	0	0	0
2.41	-10.0634	29.6231	-13.034	1.29968	0	-0.295473	-0	0.127178	-0	0	0	0	-0.000226869	0	-0.00109423	0	0	0
2.42	-41.9608	118.237	-28.8147	1.25196	0	-0.308471	-0	4.02054	-0	0	0	0	-0.000226869	0	-0.00109423	0	0	0
2.43	-114.047	339.29	-48.7663	1.24	0	-0.312518	-0	7.97331	-0	0	0	0	-0.000226869	0	-0.00109423	0	0	0
2.44	-177.24	665.315	-61.4219	1.22714	0	-0.316079	-0	10.5893	-0	0	0	0	-0.000226869	0	-0.00109423	0	0	0
2.45	-178.687	971.312	-53.9956	1.19623	0	-0.322093	-0	10.8485	-0	0	0	0	-0.000226869	0	-0.00109423	0	0	0
2.46	-194.426	1204.04	-24.7866	1.15831	0	-0.328968	-0	8.6595	-0	0	0	0	-0.000226869	0	-0.00109423	0	0	0
2.47	-241.527	1377.72	12.9396	1.12584	0	-0.333946	-0	4.92219	-0	0	0	0	-0.000226869	0	-0.00109423	0	0	0
2.48	-240.96	1554.4	40.5467	1.08938	0	-0.33711	-0	1.02362	-0	0	0	0	-0.000226869	0	-0.00109423	0	0	0
2.49	-181.029	1749.07	52.3558	1.04752	0	-0.338791	0	-1.89104	0	0	0	0	-0.000226869	0	-0.00109423	0	0	0
2.5	-114.217	1890.87	57.3233	1.01036	0	-0.338994	0	-3.38513	0	0	0	0	-0.000226869	0	-0.00109423	0	0	0
2.51	-66.5335	1939.4	62.0828	0.980493	0	-0.339063	0	-3.71588	0	0	0	0	-0.000226869	0	-0.00109423	0	0	0
2.52	-21.4805	1918.47	66.8498	0.952324	0	-0.339577	0	-3.49791	0	0	0	0	-0.000226869	0	-0.00109423	0	0	0
2.53	28.0641	1849.88	71.6062	0.923523	0	-0.339903	0	-3.31011	0	0	0	0	-0.000226869	0	-0.00109423	0	0	0
2.54	76.245	1736.72	75.4126	0.894473	0	-0.34003	0	-3.42305	0	0	0	0	-0.000226869	0	-0.00109423	0	0	0
2.55	116.605	1572.44	76.2965	0.865321	0	-0.340591	0	-3.73019	0	0	0	0	-0.000226869	0	-0.00109423	0	0	0
2.56	144.381	1354.35	73.7349	0.83656	0	-0.341683	0	-3.86971	0	0	0	0	-0.000226869	0	-0.00109423	0	0	0
2.57	158.567	1089.76	67.7679	0.808389	0	-0.342742	0	-3.44867	0	0	0	0	-0.000226869	0	-0.00109423	0	0	0
2.58	161.642	796.396	57.6514	0.776455	0	-0.343549	0	-2.2664	0	0	0	0	-0.000226869	0	-0.00109423	0	0	0
2.59	155.423	513.731	43.2013	0.735529	0	-0.344226	0	-0.448556	0	0	0	0	-0.000226869	0	-0.00109423	0	0	0
2.6	130.727	289.671	27.1292	0.695587	0	-0.34417	-0	1.57053	-0	0	0	0	-0.000226869	0	-0.00109423	0	0	0
2.61	87.1277	141.813	14.1111	0.677646	0	-0.342862	-0	3.21894	-0	0	0	0	-0.000226869	0	-0.00109423	0	0	0
2.62	41.0049	59.4355	6.48251	0.71073	0	-0.338315	-0	4.02614	-0	0	0	0	-0.000226869	0	-0.00109423	0	0	0
2.63	13.2216	21.0854	3.08829	0.788738	0	-0.320692	-0	3.80287	-0	0	0	0	-0.000226869	0	-0.00109423	0	0	0
2.64	0	0	0	-0.000226869	0	-0.00109423	0	0	0	0	0	0	-0.000226869	0	-0.00109423	0	0	0
2.65	0	0	0	-0.000226869	0	-0.00109423	0	0	0	0	0	0	-0.000226869	0	-0.00109423	0	0	0
2.66	0	0	0	-0.000226869	0	-0.00109423	0	0	0	0	0	0	-0.000226869	0	-0.00109423	0	0	0
2.67	0	0	0	-0.000226869	0	-0.00109423	0	0	0	0	0	0	-0.000226869	0	-0.00109423	0	0	0
2.68	0	0	0	-0.000226869	0	-0.00109423	0	0	0	0	0	0	-0.000226869	0	-0.00109423	0	0	0
2.69	0	0	0	-0.000226869	0	-0.00109423	0	0	0	0	0	0	-0.000226869	0	-0.00109423	0	0	0
